<svg id="Group_19" data-name="Group 19" xmlns="http://www.w3.org/2000/svg" xmlns:xlink="http://www.w3.org/1999/xlink" width="226.582" height="226.582" viewBox="0 0 226.582 226.582">
  <defs>
    <clipPath id="clip-path">
      <rect id="Rectangle_45" data-name="Rectangle 45" width="226.581" height="226.581" fill="none"/>
    </clipPath>
  </defs>
  <g id="Group_12" data-name="Group 12" clip-path="url(#clip-path)">
    <path id="Path_205" data-name="Path 205" d="M113.281,226.582q-4.383,0-8.783-.34A113.23,113.23,0,0,1,12.69,61.251a113.293,113.293,0,0,1,213.551,60.832,112.559,112.559,0,0,1-12.351,43.248l-1.329-.688,1.329.688a113.42,113.42,0,0,1-100.609,61.25m.133-223.615A110.366,110.366,0,1,0,163.955,15.35,110.565,110.565,0,0,0,113.414,2.967" transform="translate(0 -0.001)" fill="#fff"/>
    <path id="Path_206" data-name="Path 206" d="M225.812,301.7a75.889,75.889,0,1,1,53.662-22.227A75.392,75.392,0,0,1,225.812,301.7m0-148.785a72.9,72.9,0,1,0,72.9,72.9,72.978,72.978,0,0,0-72.9-72.9" transform="translate(-112.522 -112.522)" fill="#fff"/>
    <path id="Path_207" data-name="Path 207" d="M291.977,218.854a.164.164,0,0,0-.239.207c2.755,5.54,23.936,51.138-14.386,71.485a.268.268,0,0,1-.392-.2,22.82,22.82,0,0,0-6.089-12.606.031.031,0,0,0-.051.034c.865,1.626,6.229,12.709-5.21,17.964-11.439-5.255-6.075-16.338-5.21-17.964a.031.031,0,0,0-.051-.034,22.82,22.82,0,0,0-6.089,12.606.268.268,0,0,1-.392.2c-38.322-20.347-17.141-65.945-14.386-71.485a.163.163,0,0,0-.239-.207c-62.837,42.179-26.017,96.289-21.284,102.743a.193.193,0,0,0,.346-.15c-3.844-22.787-2.939-42.393,5.234-44.857,8.267-2.492,16.844,6.587,22.948,20.649,5.741,13.225,5.075,27.459,4.975,29.106a.149.149,0,0,0,.151.158h.3a.15.15,0,0,0,.15-.136c.112-1.194.986-9.89,2.693-10.745,1.332-.667,6.35-3.87,10.76,18.567a.62.62,0,0,1,.189,0c4.41-22.437,9.428-19.233,10.76-18.567,1.707.855,2.581,9.55,2.693,10.745a.15.15,0,0,0,.15.136h.3a.15.15,0,0,0,.151-.158c-.1-1.647-.766-15.881,4.974-29.106,6.1-14.062,14.681-23.141,22.948-20.649,8.173,2.464,9.078,22.07,5.234,44.857a.193.193,0,0,0,.346.15c4.733-6.454,41.552-60.564-21.284-102.743" transform="translate(-152.32 -164.235)" fill="#ed0000"/>
    <path id="Path_208" data-name="Path 208" d="M97.008,245.174A2.872,2.872,0,0,1,101.1,244l8.082,4.492a2.872,2.872,0,0,1,1.169,4.095l-3.864,6.951-13.345-7.418Zm10.454,6.684a.649.649,0,0,0-.28-.981l-7.044-3.915a.649.649,0,0,0-.981.28l-2.009,3.614,8.3,4.615Z" transform="translate(-69.907 -182.812)" fill="#fff"/>
    <path id="Path_209" data-name="Path 209" d="M145.046,200.958l-5.954-1.631-1.541,1.917,4.412,3.547-1.913,2.38-11.9-9.567,4.876-6.065a2.872,2.872,0,0,1,4.233-.46l2.793,2.245a2.84,2.84,0,0,1,.945,3.426l6.106,1.645Zm-9.235-7.126a.649.649,0,0,0-1.013.11l-2.485,3.09,3.024,2.432,2.485-3.09a.649.649,0,0,0-.11-1.014Z" transform="translate(-96.182 -142.867)" fill="#fff"/>
    <path id="Path_210" data-name="Path 210" d="M191.7,164.047l-2.384,2.074L183,151.374l2.688-2.339,13.734,8.289-2.48,2.158-3.007-1.937-3.728,3.243Zm-2.74-5.992,2.464-2.144-4.891-3.165Z" transform="translate(-137.348 -111.855)" fill="#fff"/>
    <path id="Path_211" data-name="Path 211" d="M233.908,110.549a.648.648,0,0,0-.994-.224l-2.8,1.767a.649.649,0,0,0-.225.994l4.395,6.955a.649.649,0,0,0,.995.224l2.8-1.767a.649.649,0,0,0,.225-.994l-1-1.577,2.581-1.631,1.314,2.079a2.871,2.871,0,0,1-.937,4.153l-4.087,2.583a2.872,2.872,0,0,1-4.154-.937l-5.029-7.958a2.872,2.872,0,0,1,.937-4.154l4.087-2.583a2.871,2.871,0,0,1,4.153.937l1.314,2.079-2.581,1.631Z" transform="translate(-169.977 -80.276)" fill="#fff"/>
    <path id="Path_212" data-name="Path 212" d="M293.417,87.193a2.871,2.871,0,0,1-1.609,3.943l-4.5,1.89a2.872,2.872,0,0,1-3.942-1.609l-4.782-11.377,2.815-1.183,4.552,10.83a.649.649,0,0,0,.944.385l3.089-1.3a.649.649,0,0,0,.385-.944L285.821,77l2.815-1.183Z" transform="translate(-209.088 -56.902)" fill="#fff"/>
    <path id="Path_213" data-name="Path 213" d="M344.871,65.7l2.951,12.028,6.22-1.526.687,2.8-9.186,2.253-3.637-14.829Z" transform="translate(-256.61 -49.306)" fill="#fff"/>
    <rect id="Rectangle_39" data-name="Rectangle 39" width="3.053" height="15.266" transform="translate(99.146 14.219) rotate(-7.214)" fill="#fff"/>
    <path id="Path_214" data-name="Path 214" d="M444.816,52.958l-.11,15.268-3.287-.024L435.875,57.75,435.8,68.161l-2.862-.02.11-15.268,3.287.024,5.544,10.452.075-10.412Z" transform="translate(-324.932 -39.683)" fill="#fff"/>
    <path id="Path_215" data-name="Path 215" d="M506,58.22a2.872,2.872,0,0,1,2.418,3.506l-1.7,9.26a2.872,2.872,0,0,1-3.505,2.418l-5.026-.923a2.872,2.872,0,0,1-2.418-3.506l1.7-9.26a2.872,2.872,0,0,1,3.506-2.418Zm-.693,3.538a.649.649,0,0,0-.579-.839l-3.525-.647a.649.649,0,0,0-.839.579l-1.486,8.092a.649.649,0,0,0,.579.839l3.525.647a.649.649,0,0,0,.839-.579Z" transform="translate(-372.044 -42.958)" fill="#fff"/>
    <path id="Path_216" data-name="Path 216" d="M590.463,85.3a2.872,2.872,0,0,1,1.5,3.984l-3.878,8.579a2.872,2.872,0,0,1-3.984,1.5l-4.657-2.105a2.872,2.872,0,0,1-1.5-3.984l3.879-8.579a2.872,2.872,0,0,1,3.984-1.5Zm-1.524,3.267a.649.649,0,0,0-.36-.954l-3.266-1.476a.649.649,0,0,0-.954.36l-3.389,7.5a.649.649,0,0,0,.36.954l3.266,1.476a.649.649,0,0,0,.954-.36Z" transform="translate(-433.533 -62.208)" fill="#fff"/>
    <path id="Path_217" data-name="Path 217" d="M641.746,114.057a2.872,2.872,0,0,1,.824,4.178l-2.149,3.205a2.872,2.872,0,0,1-4.178.824l-3.945-2.645-3,4.474-2.536-1.7,8.5-12.681Zm-4.531,5.387a.649.649,0,0,0,1-.2l1.488-2.219a.649.649,0,0,0-.2-1l-3.312-2.22-2.291,3.417Z" transform="translate(-470.404 -82.341)" fill="#fff"/>
    <path id="Path_218" data-name="Path 218" d="M667.388,164.671l-2.318-2.146,13.982-7.861,2.614,2.42L674.9,171.629l-2.412-2.233,1.6-3.2-3.626-3.357Zm5.662-3.369,2.4,2.219,2.621-5.2Z" transform="translate(-499.154 -116.079)" fill="#fff"/>
    <path id="Path_219" data-name="Path 219" d="M717.772,199.959l-2.223-2.784,9.035-13.154,2.169,2.718-7.227,9.54,10.957-4.866,2.117,2.652Z" transform="translate(-537.04 -138.112)" fill="#fff"/>
    <path id="Path_220" data-name="Path 220" d="M737.29,254.456l-1.574-2.739,15.688-3.341,1.775,3.089-10.786,11.871-1.638-2.85,2.482-2.576-2.461-4.283Zm6.408-1.53,1.627,2.831,4.051-4.186Z" transform="translate(-552.176 -186.413)" fill="#fff"/>
    <path id="Path_221" data-name="Path 221" d="M88.359,566.388a2.872,2.872,0,0,1-1.7,3.9l-2.013.791a2.5,2.5,0,0,1-2.62-.407,2.46,2.46,0,0,1-1.582,2.238l-2.329.914a2.872,2.872,0,0,1-3.9-1.7l-2.882-7.343L85.539,559.2Zm-11.784,3.988a.649.649,0,0,0,.935.407l2.053-.806c.592-.232.492-.6.275-1.156l-1.395-3.553-3.356,1.317Zm5.82-2.467c.2.513.382.625.935.408l1.7-.666a.649.649,0,0,0,.408-.935l-1.426-3.632-3.04,1.193Z" transform="translate(-53.533 -419.698)" fill="#fff"/>
    <path id="Path_222" data-name="Path 222" d="M101.113,625.147l3.609-5.008-1.257-2.115L98.6,620.919l-1.561-2.625,13.123-7.8,3.978,6.69a2.872,2.872,0,0,1-1.049,4.127l-3.08,1.832a2.841,2.841,0,0,1-3.541-.312l-3.675,5.146Zm9.906-6.162a.649.649,0,0,0,.251-.988l-2.027-3.409-3.335,1.984,2.027,3.409a.649.649,0,0,0,.988.251Z" transform="translate(-72.83 -458.19)" fill="#fff"/>
    <path id="Path_223" data-name="Path 223" d="M130.657,677.173l-2.031-2.42,14.856-6.047,2.29,2.729-8.531,13.583-2.113-2.517,1.991-2.971-3.176-3.784Zm6.04-2.633,2.1,2.5,3.251-4.833Z" transform="translate(-96.538 -501.883)" fill="#fff"/>
    <path id="Path_224" data-name="Path 224" d="M187.261,705.64l-4.9-4.255,1.863-2.145,7.814,6.785-1.529,1.761L178.7,710.9l5.156,4.477-1.863,2.146-8.07-7.008,1.53-1.761Z" transform="translate(-130.536 -524.799)" fill="#fff"/>
    <rect id="Rectangle_40" data-name="Rectangle 40" width="15.267" height="3.053" transform="matrix(0.563, -0.827, 0.827, 0.563, 55.433, 195.507)" fill="#fff"/>
    <path id="Path_225" data-name="Path 225" d="M260.542,749.66l-5.785,10.95,5.663,2.991-1.347,2.55-8.362-4.417,7.131-13.5Z" transform="translate(-188.165 -561.571)" fill="#fff"/>
    <rect id="Rectangle_41" data-name="Rectangle 41" width="15.268" height="3.053" transform="translate(74.999 206.231) rotate(-68.535)" fill="#fff"/>
    <path id="Path_226" data-name="Path 226" d="M330.806,797.57l-3.06-.786,8.563-13.562,3.45.886.966,16.01-3.183-.818-.111-3.575-4.785-1.229Zm3.379-5.655,3.163.812-.168-5.822Z" transform="translate(-245.983 -587.831)" fill="#fff"/>
    <path id="Path_227" data-name="Path 227" d="M411.266,793.735l-1.235,15.216-3.276-.266L402,797.855l-.842,10.376L398.3,808l1.235-15.217,3.276.266,4.758,10.831.842-10.377Z" transform="translate(-298.937 -595.007)" fill="#fff"/>
    <path id="Path_228" data-name="Path 228" d="M498.6,801.437a2.872,2.872,0,0,1-2.533,3.423l-4.384.655a2.872,2.872,0,0,1-3.423-2.533l-.5-3.314,3.02-.451.407,2.727a.649.649,0,0,0,.82.606l2.873-.429a.649.649,0,0,0,.607-.819l-1.737-11.619,3.02-.451Z" transform="translate(-366.082 -592.341)" fill="#fff"/>
    <rect id="Rectangle_42" data-name="Rectangle 42" width="3.054" height="15.269" transform="translate(134.072 195.992) rotate(-15.131)" fill="#fff"/>
    <path id="Path_229" data-name="Path 229" d="M577.365,773.868a2.872,2.872,0,0,1-1.651,3.925l-4.516,1.842a2.872,2.872,0,0,1-3.925-1.651l-4.661-11.428,2.828-1.153,4.437,10.878a.649.649,0,0,0,.94.4l3.1-1.265a.649.649,0,0,0,.4-.94l-4.437-10.879,2.828-1.153Z" transform="translate(-422.256 -572.233)" fill="#fff"/>
    <rect id="Rectangle_43" data-name="Rectangle 43" width="7.634" height="2.757" transform="translate(156.347 194.857) rotate(-30.264)" fill="#fff"/>
    <path id="Path_230" data-name="Path 230" d="M676.857,722.924a2.872,2.872,0,0,1-.554,4.222l-3.515,2.7a2.872,2.872,0,0,1-4.222-.554l-2.041-2.657,2.421-1.861,1.679,2.186a.649.649,0,0,0,1.011.133l2.3-1.77a.649.649,0,0,0,.133-1.011L666.917,715l2.422-1.86Z" transform="translate(-500.246 -535.229)" fill="#fff"/>
    <rect id="Rectangle_44" data-name="Rectangle 44" width="3.054" height="15.269" transform="matrix(0.718, -0.696, 0.696, 0.718, 171.612, 175.483)" fill="#fff"/>
    <path id="Path_231" data-name="Path 231" d="M711.045,658.61l9.605,7.884-1.937,2.36-9.605-7.884-2.529,3.081-2.2-1.8,7-8.524,2.2,1.8Z" transform="translate(-528.659 -490.64)" fill="#fff"/>
    <path id="Path_232" data-name="Path 232" d="M746.3,619.2a.649.649,0,0,0-.989.25l-1.564,2.622a.649.649,0,0,0,.25.989l1.238.739c.4.239.659.1.989-.25l2.749-2.952c1.157-1.236,2.729-1.927,4.186-1.058l2.367,1.413a2.872,2.872,0,0,1,1.043,4.128l-2.434,4.079A2.872,2.872,0,0,1,750,630.2l-1.675-1,1.521-2.549,1.166.7a.649.649,0,0,0,.989-.25l1.695-2.841a.649.649,0,0,0-.25-.988l-1.384-.826c-.4-.239-.659-.1-.989.25l-2.749,2.952c-1.157,1.236-2.73,1.927-4.187,1.058l-2.222-1.325a2.872,2.872,0,0,1-1.043-4.129l2.3-3.86a2.872,2.872,0,0,1,4.128-1.043l1.53.913-1.521,2.549Z" transform="translate(-555.691 -462.228)" fill="#fff"/>
    <path id="Path_233" data-name="Path 233" d="M778.992,564.809a2.872,2.872,0,0,1,1.687,3.909l-1.8,4.533a2.872,2.872,0,0,1-3.91,1.687L763.5,570.385l1.127-2.838,10.918,4.335a.649.649,0,0,0,.936-.4l1.236-3.113a.649.649,0,0,0-.4-.936L766.4,563.093l1.127-2.838Z" transform="translate(-573.029 -420.487)" fill="#fff"/>
    <path id="Path_234" data-name="Path 234" d="M76.531,381.646a95.439,95.439,0,0,1,2.281-51l3.837,1.26a91.395,91.395,0,0,0-2.183,48.833Z" transform="translate(-55.616 -248.159)" fill="#db0e0e"/>
    <path id="Path_235" data-name="Path 235" d="M806,381.647l-3.935-.909a91.4,91.4,0,0,0-2.184-48.833l3.837-1.259a95.445,95.445,0,0,1,2.281,51" transform="translate(-600.337 -248.159)" fill="#db0e0e"/>
  </g>
</svg>
